<?xml version="1.0" encoding="UTF-8"?>
<svg width="24px" height="24px" viewBox="0 0 24 24" version="1.1" xmlns="http://www.w3.org/2000/svg" xmlns:xlink="http://www.w3.org/1999/xlink">
    <title>Untitled 2</title>
    <g id="Page-1" stroke="none" stroke-width="1" fill="none" fill-rule="evenodd">
        <g id="lightbulb-blue" fill="#08088B" fill-rule="nonzero">
            <path d="M13.793635,21.9479182 C14.5631522,21.9479182 15.187703,22.4071591 15.187703,22.9737864 C15.187703,23.488965 14.6717471,23.915403 13.9993938,23.9889506 L13.793635,24 L10.2998918,24 C9.53037454,24 8.90634336,23.5407591 8.90634336,22.9737864 C8.90634336,22.4589532 9.42177961,22.0325152 10.0941329,21.9589676 L10.2998918,21.9479182 L13.793635,21.9479182 Z M15.5649275,18.8868875 C16.3401602,18.8868875 16.9688677,19.3464737 16.9688677,19.913101 C16.9688677,20.4282796 16.4492747,20.8547176 15.7722451,20.9282652 L15.5649275,20.9389693 L8.52859926,20.9389693 C7.75336653,20.9389693 7.12517861,20.4797284 7.12517861,19.913101 C7.12517861,19.3979225 7.644252,18.9714845 8.32128166,18.8982822 L8.52859926,18.8868875 L15.5649275,18.8868875 Z M12,0 C18.6274085,0 24,3.9943602 24,8.92204989 C24,11.6688631 22.3321065,13.9250137 19.3751028,15.5440969 L18.9220178,15.7820044 L18.7043083,15.8859379 L18.7043083,16.7978592 C18.7032691,17.2705666 18.2813596,17.6697264 17.7020134,17.7992116 L17.5035289,17.8323598 L17.2956917,17.8434092 L6.70430829,17.8434092 C5.99714224,17.8434092 5.41156094,17.4559894 5.3107599,16.9511697 L5.29569171,16.796478 L5.29361334,15.8859379 L5.08058021,15.7833856 C2.15007577,14.3072541 0.364754276,12.2489569 0.0498809266,9.73487181 L0.0114310457,9.31188674 L0,8.92204989 C0,3.9943602 5.37259147,0 12,0 Z M12.0233817,2.05242713 C6.93656636,2.05242713 2.81255683,5.08894196 2.81255683,8.83503582 C2.81255683,11.1726757 4.42641264,13.0006618 7.41874865,14.2751417 C7.7928556,14.4343222 8.04381901,14.7095215 8.10824854,15.0185595 L8.12435592,15.175323 L8.12227755,15.6176445 L15.9244858,15.6176445 L15.925525,15.1732512 C15.9260446,14.9084108 16.0632171,14.6577274 16.3001515,14.4688516 L16.4544707,14.3628464 L16.6300931,14.2741058 C19.6213899,12.9992806 21.2342065,11.1719852 21.2342065,8.83503582 C21.2342065,5.08894196 17.110197,2.05242713 12.0233817,2.05242713 Z" id="Shape"></path>
        </g>
    </g>
</svg>