<?xml version="1.0" encoding="UTF-8" standalone="no"?>
<!DOCTYPE svg PUBLIC "-//W3C//DTD SVG 1.1//EN" "http://www.w3.org/Graphics/SVG/1.1/DTD/svg11.dtd">
<svg width="100%" height="100%" viewBox="0 0 352 56" version="1.1" xmlns="http://www.w3.org/2000/svg" xmlns:xlink="http://www.w3.org/1999/xlink" xml:space="preserve" xmlns:serif="http://www.serif.com/" style="fill-rule:evenodd;clip-rule:evenodd;stroke-linejoin:round;stroke-miterlimit:2;">
    <g id="Layer-1" serif:id="Layer 1">
        <g transform="matrix(1,0,0,1,99.4238,38.2299)">
            <path d="M0,-21.063L4.734,-21.063L4.734,5.572L11.497,5.572L11.497,-21.063L16.232,-21.063L16.232,-26.635L0,-26.635L0,-21.063Z" style="fill-rule:nonzero;"/>
        </g>
        <g transform="matrix(1,0,0,1,126.22,44.2852)">
            <path d="M0,-33.173C-5.927,-33.173 -9.115,-29.792 -9.115,-23.511L-9.115,-9.662C-9.115,-3.381 -5.927,0 0,0C6.022,0 9.114,-3.188 9.114,-9.34L9.114,-13.269L2.415,-13.269L2.415,-8.631C2.415,-6.377 1.545,-5.411 0.032,-5.411C-1.482,-5.411 -2.352,-6.377 -2.352,-8.631L-2.352,-24.542C-2.352,-26.796 -1.482,-27.763 0.032,-27.763C1.545,-27.763 2.415,-26.796 2.415,-24.542L2.415,-20.226L9.114,-20.226L9.114,-23.833C9.114,-29.985 6.022,-33.173 0,-33.173" style="fill-rule:nonzero;"/>
        </g>
        <g transform="matrix(1,0,0,1,90.4053,30.5321)">
            <path d="M0,-5.668L-4.734,-5.668L-4.734,-18.938L-11.498,-18.938L-11.498,13.27L-4.734,13.27L-4.734,-0.257L0,-0.257L0,13.27L6.764,13.27L6.764,-18.938L0,-18.938L0,-5.668Z" style="fill-rule:nonzero;"/>
        </g>
        <g transform="matrix(1,0,0,1,0,-0.0012)">
            <rect x="45.154" y="11.595" width="6.764" height="32.208"/>
        </g>
        <g transform="matrix(1,0,0,1,12.0776,20.4189)">
            <path d="M0,14.559C0,17.135 -0.773,17.908 -2.802,17.908L-5.314,17.908L-5.314,9.759L-2.802,9.759C-0.773,9.759 0,10.532 0,13.109L0,14.559ZM-5.314,-3.349L-2.899,-3.349C-0.87,-3.349 -0.097,-2.576 -0.097,0.001L-0.097,0.838C-0.097,3.479 -0.966,4.285 -3.221,4.285L-5.314,4.285L-5.314,-3.349ZM1.353,6.99L1.353,6.41C5.153,6.024 6.603,4.188 6.603,0.098L6.603,-0.354C6.603,-6.312 4.413,-8.824 -1.61,-8.824L-12.078,-8.824L-12.078,23.383L-1.449,23.383C4.574,23.383 6.764,20.871 6.764,14.913L6.764,13.302C6.764,9.212 5.314,7.376 1.353,6.99" style="fill-rule:nonzero;"/>
        </g>
        <g transform="matrix(1,0,0,1,65.3164,44.2852)">
            <path d="M0,-33.173C-6.119,-33.173 -9.244,-29.792 -9.244,-23.511L-9.244,-8.696C-9.244,-2.835 -6.829,0 -1.514,0C2.931,0 4.734,-1.869 4.927,-6.409L5.41,-6.409L6.28,-0.483L9.243,-0.483L9.243,-18.294L0.064,-18.294L0.064,-13.398L2.802,-13.398L2.802,-8.631C2.802,-6.377 1.932,-5.411 0.16,-5.411C-1.611,-5.411 -2.48,-6.377 -2.48,-8.631L-2.48,-24.542C-2.48,-26.796 -1.611,-27.763 0.032,-27.763C1.674,-27.763 2.544,-26.796 2.544,-24.542L2.544,-21.128L9.243,-21.128L9.243,-23.833C9.243,-29.985 6.184,-33.173 0,-33.173" style="fill-rule:nonzero;"/>
        </g>
        <g transform="matrix(1,0,0,1,34.3652,33.3667)">
            <path d="M0,-11.337C0,-8.695 -0.87,-7.89 -3.124,-7.89L-5.057,-7.89L-5.057,-16.296L-2.803,-16.296C-0.773,-16.296 0,-15.524 0,-12.947L0,-11.337ZM-1.45,-21.772L-11.82,-21.772L-11.82,10.435L-5.057,10.435L-5.057,-2.416L-2.803,-2.416C-0.773,-2.416 0,-1.642 0,0.934L0,10.435L6.763,10.435L6.763,1.16C6.763,-2.931 5.314,-4.766 1.513,-5.153L1.513,-5.733C5.314,-6.119 6.763,-7.955 6.763,-12.045L6.763,-13.301C6.763,-19.259 4.573,-21.772 -1.45,-21.772" style="fill-rule:nonzero;"/>
        </g>
        <g transform="matrix(1,0,0,1,150.214,19.7437)">
            <path d="M0,15.91C0,18.165 -0.934,19.131 -2.576,19.131C-4.219,19.131 -5.153,18.165 -5.153,15.91L-5.153,-0.001C-5.153,-2.255 -4.219,-3.221 -2.576,-3.221C-0.934,-3.221 0,-2.255 0,-0.001L0,15.91ZM-2.576,-8.632C-8.695,-8.632 -11.917,-5.251 -11.917,1.03L-11.917,14.88C-11.917,21.16 -8.695,24.542 -2.576,24.542C3.543,24.542 6.764,21.16 6.764,14.88L6.764,1.03C6.764,-5.251 3.543,-8.632 -2.576,-8.632" style="fill-rule:nonzero;"/>
        </g>
        <g transform="matrix(1,0,0,1,306.161,41.9665)">
            <path d="M0,-28.536C-4.059,-28.536 -5.958,-25.863 -5.958,-21.225L-5.958,-7.311C-5.958,-2.674 -4.059,0 0,0C4.059,0 5.959,-2.674 5.959,-7.311L5.959,-21.225C5.959,-25.863 4.059,-28.536 0,-28.536" style="fill:white;fill-rule:nonzero;"/>
        </g>
        <g transform="matrix(-0.198115,0.980179,0.980179,0.198115,272.992,23.7801)">
            <path d="M-7.897,-11.544L10.471,-11.544L8.723,-2.894L-8.203,-10.027L-7.897,-11.544Z" style="fill:white;fill-rule:nonzero;"/>
        </g>
        <g transform="matrix(1,0,0,1,346.056,40.9881)">
            <path d="M0,-26.579L-0.517,-26.579L-0.517,-28.85L-1.295,-26.579L-1.745,-26.579L-2.531,-28.85L-2.531,-26.579L-3.047,-26.579L-3.047,-29.393L-2.242,-29.393L-1.523,-27.379L-0.8,-29.393L0,-29.393L0,-26.579ZM-3.524,-28.924L-4.444,-28.924L-4.444,-26.579L-5.003,-26.579L-5.003,-28.924L-5.924,-28.924L-5.924,-29.393L-3.524,-29.393L-3.524,-28.924ZM-9.044,2.814L-13.94,2.814L-22.282,-27.364L-23.312,-27.364L-23.312,2.814L-25.47,2.814L-25.47,-29.393L-20.574,-29.393L-12.232,0.785L-11.202,0.785L-11.202,-29.393L-9.044,-29.393L-9.044,2.814ZM-31.682,-6.332C-31.682,-0.439 -34.741,3.136 -39.895,3.136C-45.048,3.136 -48.107,-0.439 -48.107,-6.332L-48.107,-20.246C-48.107,-26.141 -45.048,-29.715 -39.895,-29.715C-34.741,-29.715 -31.682,-26.141 -31.682,-20.246L-31.682,-6.332ZM-53.19,-18.475L-55.445,-18.475L-55.445,-20.891C-55.445,-25.206 -57.12,-27.558 -61.146,-27.558C-65.172,-27.558 -66.847,-24.884 -66.847,-20.246L-66.847,-6.332C-66.847,-1.696 -65.172,0.978 -61.146,0.978C-57.12,0.978 -55.445,-1.373 -55.445,-5.689L-55.445,-8.426L-53.19,-8.426L-53.19,-5.689C-53.19,-0.084 -56.024,3.136 -61.146,3.136C-66.267,3.136 -69.102,-0.407 -69.102,-6.332L-69.102,-20.246C-69.102,-26.173 -66.267,-29.715 -61.146,-29.715C-56.024,-29.715 -53.19,-26.495 -53.19,-20.891L-53.19,-18.475ZM-75.181,2.814L-77.178,-7.074L-86.904,-7.074L-88.901,2.814L-91.123,2.814L-84.553,-29.393L-79.464,-29.393L-72.894,2.814L-75.181,2.814ZM-93.377,-27.203L-104.36,-27.203L-104.36,-14.771L-93.699,-14.771L-93.699,-12.581L-104.36,-12.581L-104.36,0.624L-93.377,0.624L-93.828,2.814L-106.614,2.814L-106.614,-29.393L-93.377,-29.393L-93.377,-27.203ZM-111.988,-4.948C-111.988,0.045 -114.371,2.814 -120.008,2.814L-127.77,2.814L-127.77,-29.393L-120.33,-29.393C-114.79,-29.393 -112.31,-26.816 -112.31,-21.857L-112.31,-20.375C-112.31,-16.221 -114.79,-14.32 -118.59,-14.095L-118.59,-13.579C-114.371,-13.354 -111.988,-11.26 -111.988,-7.074L-111.988,-4.948ZM-139.521,14.409L5.114,14.409L5.114,-40.988L-139.521,-40.988L-139.521,14.409Z" style="fill-rule:nonzero;"/>
        </g>
        <g transform="matrix(1,0,0,1,169.248,17.1669)">
            <path d="M0,21.063L-0.612,21.063L-3.06,-5.572L-10.048,-5.572L-6.28,26.635L4.928,26.635L8.567,-5.572L2.319,-5.572L0,21.063Z" style="fill-rule:nonzero;"/>
        </g>
        <g transform="matrix(1,0,0,1,226.048,41.612)">
            <path d="M0,-13.366L-5.508,-13.366L-5.508,0L0,0C4.252,0 5.765,-1.739 5.765,-5.604L5.765,-7.762C5.765,-11.627 4.252,-13.366 0,-13.366" style="fill:white;fill-rule:nonzero;"/>
        </g>
        <g transform="matrix(1,0,0,1,180.65,11.5941)">
            <path d="M0,32.208L15.298,32.208L15.298,26.636L6.763,26.636L6.763,18.648L14.718,18.648L14.718,13.238L6.763,13.238L6.763,5.573L15.298,5.573L15.298,0L0,0L0,32.208Z" style="fill-rule:nonzero;"/>
        </g>
        <g transform="matrix(1,0,0,1,231.523,19.1631)">
            <path d="M0,1.514L0,-0C0,-3.832 -1.644,-5.378 -5.798,-5.378L-10.983,-5.378L-10.983,6.892L-5.798,6.892C-1.644,6.892 0,5.347 0,1.514" style="fill:white;fill-rule:nonzero;"/>
        </g>
    </g>
</svg>
